<mxfile host="app.diagrams.net" modified="2023-12-11T01:53:52.318Z" agent="Mozilla/5.0 (Windows NT 10.0; Win64; x64) AppleWebKit/537.36 (KHTML, like Gecko) Chrome/120.0.0.0 Safari/537.36" etag="1_qX7Vk9gwkZ39eV4Wt4" version="22.1.7" type="device">
  <diagram name="Page-1" id="iSvQoOuFUhGwQFlHE-Fj">
    <mxGraphModel dx="2284" dy="790" grid="1" gridSize="10" guides="1" tooltips="1" connect="1" arrows="1" fold="1" page="1" pageScale="1" pageWidth="850" pageHeight="1100" math="0" shadow="0">
      <root>
        <mxCell id="0" />
        <mxCell id="1" parent="0" />
        <mxCell id="90Dla50yhjgB0YiH94BC-1" value="Manages" style="rhombus;whiteSpace=wrap;html=1;" vertex="1" parent="1">
          <mxGeometry x="417.5" y="515" width="70" height="40" as="geometry" />
        </mxCell>
        <mxCell id="90Dla50yhjgB0YiH94BC-2" value="Members" style="rounded=1;whiteSpace=wrap;html=1;" vertex="1" parent="1">
          <mxGeometry x="45" y="250" width="70" height="30" as="geometry" />
        </mxCell>
        <mxCell id="90Dla50yhjgB0YiH94BC-7" value="Attends" style="rhombus;whiteSpace=wrap;html=1;" vertex="1" parent="1">
          <mxGeometry x="195" y="290" width="80" height="50" as="geometry" />
        </mxCell>
        <mxCell id="90Dla50yhjgB0YiH94BC-8" value="Teaches" style="rhombus;whiteSpace=wrap;html=1;" vertex="1" parent="1">
          <mxGeometry x="630" y="392.5" width="70" height="45" as="geometry" />
        </mxCell>
        <mxCell id="90Dla50yhjgB0YiH94BC-139" style="edgeStyle=orthogonalEdgeStyle;rounded=0;orthogonalLoop=1;jettySize=auto;html=1;exitX=0.827;exitY=-0.005;exitDx=0;exitDy=0;entryX=0.5;entryY=1;entryDx=0;entryDy=0;exitPerimeter=0;" edge="1" parent="1" source="90Dla50yhjgB0YiH94BC-9" target="90Dla50yhjgB0YiH94BC-134">
          <mxGeometry relative="1" as="geometry" />
        </mxCell>
        <mxCell id="90Dla50yhjgB0YiH94BC-140" style="edgeStyle=orthogonalEdgeStyle;rounded=0;orthogonalLoop=1;jettySize=auto;html=1;exitX=0.75;exitY=0;exitDx=0;exitDy=0;entryX=0;entryY=1;entryDx=0;entryDy=0;" edge="1" parent="1" source="90Dla50yhjgB0YiH94BC-9" target="90Dla50yhjgB0YiH94BC-136">
          <mxGeometry relative="1" as="geometry">
            <Array as="points">
              <mxPoint x="797" y="350" />
              <mxPoint x="780" y="350" />
              <mxPoint x="780" y="277" />
            </Array>
          </mxGeometry>
        </mxCell>
        <mxCell id="90Dla50yhjgB0YiH94BC-141" style="edgeStyle=orthogonalEdgeStyle;rounded=0;orthogonalLoop=1;jettySize=auto;html=1;exitX=0.5;exitY=0;exitDx=0;exitDy=0;entryX=0.5;entryY=1;entryDx=0;entryDy=0;" edge="1" parent="1" source="90Dla50yhjgB0YiH94BC-9" target="90Dla50yhjgB0YiH94BC-133">
          <mxGeometry relative="1" as="geometry" />
        </mxCell>
        <mxCell id="90Dla50yhjgB0YiH94BC-9" value="Trainers" style="rounded=1;whiteSpace=wrap;html=1;" vertex="1" parent="1">
          <mxGeometry x="730" y="380" width="90" height="35" as="geometry" />
        </mxCell>
        <mxCell id="90Dla50yhjgB0YiH94BC-98" style="edgeStyle=orthogonalEdgeStyle;rounded=0;orthogonalLoop=1;jettySize=auto;html=1;exitX=0.25;exitY=0;exitDx=0;exitDy=0;entryX=1;entryY=0.5;entryDx=0;entryDy=0;" edge="1" parent="1" source="90Dla50yhjgB0YiH94BC-10" target="90Dla50yhjgB0YiH94BC-94">
          <mxGeometry relative="1" as="geometry">
            <Array as="points">
              <mxPoint x="100" y="435" />
              <mxPoint x="100" y="390" />
              <mxPoint x="58" y="390" />
            </Array>
          </mxGeometry>
        </mxCell>
        <mxCell id="90Dla50yhjgB0YiH94BC-99" style="edgeStyle=orthogonalEdgeStyle;rounded=0;orthogonalLoop=1;jettySize=auto;html=1;exitX=0;exitY=0;exitDx=0;exitDy=0;entryX=1;entryY=0.5;entryDx=0;entryDy=0;" edge="1" parent="1" source="90Dla50yhjgB0YiH94BC-10" target="90Dla50yhjgB0YiH94BC-95">
          <mxGeometry relative="1" as="geometry" />
        </mxCell>
        <mxCell id="90Dla50yhjgB0YiH94BC-100" style="edgeStyle=orthogonalEdgeStyle;rounded=0;orthogonalLoop=1;jettySize=auto;html=1;exitX=0;exitY=0.5;exitDx=0;exitDy=0;entryX=1;entryY=0.5;entryDx=0;entryDy=0;" edge="1" parent="1" source="90Dla50yhjgB0YiH94BC-10" target="90Dla50yhjgB0YiH94BC-96">
          <mxGeometry relative="1" as="geometry" />
        </mxCell>
        <mxCell id="90Dla50yhjgB0YiH94BC-101" style="edgeStyle=orthogonalEdgeStyle;rounded=0;orthogonalLoop=1;jettySize=auto;html=1;exitX=0.5;exitY=0;exitDx=0;exitDy=0;entryX=1;entryY=0.5;entryDx=0;entryDy=0;" edge="1" parent="1" source="90Dla50yhjgB0YiH94BC-10" target="90Dla50yhjgB0YiH94BC-92">
          <mxGeometry relative="1" as="geometry">
            <Array as="points">
              <mxPoint x="110" y="435" />
              <mxPoint x="110" y="347" />
            </Array>
          </mxGeometry>
        </mxCell>
        <mxCell id="90Dla50yhjgB0YiH94BC-10" value="Transactions" style="rounded=1;whiteSpace=wrap;html=1;" vertex="1" parent="1">
          <mxGeometry x="100" y="435" width="90" height="30" as="geometry" />
        </mxCell>
        <mxCell id="90Dla50yhjgB0YiH94BC-90" style="edgeStyle=orthogonalEdgeStyle;rounded=0;orthogonalLoop=1;jettySize=auto;html=1;exitX=0.25;exitY=1;exitDx=0;exitDy=0;" edge="1" parent="1" source="90Dla50yhjgB0YiH94BC-11" target="90Dla50yhjgB0YiH94BC-85">
          <mxGeometry relative="1" as="geometry" />
        </mxCell>
        <mxCell id="90Dla50yhjgB0YiH94BC-11" value="LoyaltyPoints" style="rounded=1;whiteSpace=wrap;html=1;" vertex="1" parent="1">
          <mxGeometry x="40" y="570" width="100" height="30" as="geometry" />
        </mxCell>
        <mxCell id="90Dla50yhjgB0YiH94BC-161" style="edgeStyle=orthogonalEdgeStyle;rounded=0;orthogonalLoop=1;jettySize=auto;html=1;exitX=0.5;exitY=1;exitDx=0;exitDy=0;entryX=1;entryY=0;entryDx=0;entryDy=0;" edge="1" parent="1" source="90Dla50yhjgB0YiH94BC-12" target="90Dla50yhjgB0YiH94BC-158">
          <mxGeometry relative="1" as="geometry" />
        </mxCell>
        <mxCell id="90Dla50yhjgB0YiH94BC-12" value="Admin" style="rounded=1;whiteSpace=wrap;html=1;" vertex="1" parent="1">
          <mxGeometry x="293" y="662.5" width="115" height="27.5" as="geometry" />
        </mxCell>
        <mxCell id="90Dla50yhjgB0YiH94BC-150" style="edgeStyle=orthogonalEdgeStyle;rounded=0;orthogonalLoop=1;jettySize=auto;html=1;exitX=1;exitY=0.5;exitDx=0;exitDy=0;" edge="1" parent="1" source="90Dla50yhjgB0YiH94BC-13" target="90Dla50yhjgB0YiH94BC-144">
          <mxGeometry relative="1" as="geometry" />
        </mxCell>
        <mxCell id="90Dla50yhjgB0YiH94BC-151" style="edgeStyle=orthogonalEdgeStyle;rounded=0;orthogonalLoop=1;jettySize=auto;html=1;exitX=1;exitY=0.75;exitDx=0;exitDy=0;entryX=0;entryY=0;entryDx=0;entryDy=0;" edge="1" parent="1" source="90Dla50yhjgB0YiH94BC-13" target="90Dla50yhjgB0YiH94BC-145">
          <mxGeometry relative="1" as="geometry" />
        </mxCell>
        <mxCell id="90Dla50yhjgB0YiH94BC-13" value="Rooms" style="rounded=1;whiteSpace=wrap;html=1;" vertex="1" parent="1">
          <mxGeometry x="605" y="527.5" width="90" height="30" as="geometry" />
        </mxCell>
        <mxCell id="90Dla50yhjgB0YiH94BC-155" style="edgeStyle=orthogonalEdgeStyle;rounded=0;orthogonalLoop=1;jettySize=auto;html=1;entryX=1;entryY=0.5;entryDx=0;entryDy=0;" edge="1" parent="1" source="90Dla50yhjgB0YiH94BC-14" target="90Dla50yhjgB0YiH94BC-153">
          <mxGeometry relative="1" as="geometry" />
        </mxCell>
        <mxCell id="90Dla50yhjgB0YiH94BC-14" value="Equipment" style="rounded=1;whiteSpace=wrap;html=1;" vertex="1" parent="1">
          <mxGeometry x="630" y="662.5" width="100" height="25" as="geometry" />
        </mxCell>
        <mxCell id="90Dla50yhjgB0YiH94BC-106" style="edgeStyle=orthogonalEdgeStyle;rounded=0;orthogonalLoop=1;jettySize=auto;html=1;exitX=0.25;exitY=0;exitDx=0;exitDy=0;entryX=0.5;entryY=1;entryDx=0;entryDy=0;" edge="1" parent="1" source="90Dla50yhjgB0YiH94BC-16" target="90Dla50yhjgB0YiH94BC-103">
          <mxGeometry relative="1" as="geometry" />
        </mxCell>
        <mxCell id="90Dla50yhjgB0YiH94BC-109" style="edgeStyle=orthogonalEdgeStyle;rounded=0;orthogonalLoop=1;jettySize=auto;html=1;exitX=1;exitY=0;exitDx=0;exitDy=0;" edge="1" parent="1" source="90Dla50yhjgB0YiH94BC-16" target="90Dla50yhjgB0YiH94BC-105">
          <mxGeometry relative="1" as="geometry">
            <Array as="points">
              <mxPoint x="490" y="420" />
              <mxPoint x="490" y="397" />
              <mxPoint x="550" y="397" />
            </Array>
          </mxGeometry>
        </mxCell>
        <mxCell id="90Dla50yhjgB0YiH94BC-16" value="Event" style="rounded=1;whiteSpace=wrap;html=1;" vertex="1" parent="1">
          <mxGeometry x="400" y="420" width="105" height="40" as="geometry" />
        </mxCell>
        <mxCell id="90Dla50yhjgB0YiH94BC-115" style="edgeStyle=orthogonalEdgeStyle;rounded=0;orthogonalLoop=1;jettySize=auto;html=1;entryX=0.5;entryY=1;entryDx=0;entryDy=0;" edge="1" parent="1" source="90Dla50yhjgB0YiH94BC-17" target="90Dla50yhjgB0YiH94BC-114">
          <mxGeometry relative="1" as="geometry" />
        </mxCell>
        <mxCell id="90Dla50yhjgB0YiH94BC-116" style="edgeStyle=orthogonalEdgeStyle;rounded=0;orthogonalLoop=1;jettySize=auto;html=1;" edge="1" parent="1" source="90Dla50yhjgB0YiH94BC-17">
          <mxGeometry relative="1" as="geometry">
            <mxPoint x="470" y="90" as="targetPoint" />
          </mxGeometry>
        </mxCell>
        <mxCell id="90Dla50yhjgB0YiH94BC-117" style="edgeStyle=orthogonalEdgeStyle;rounded=0;orthogonalLoop=1;jettySize=auto;html=1;exitX=0;exitY=0;exitDx=0;exitDy=0;" edge="1" parent="1" source="90Dla50yhjgB0YiH94BC-17" target="90Dla50yhjgB0YiH94BC-112">
          <mxGeometry relative="1" as="geometry" />
        </mxCell>
        <mxCell id="90Dla50yhjgB0YiH94BC-118" style="edgeStyle=orthogonalEdgeStyle;rounded=0;orthogonalLoop=1;jettySize=auto;html=1;exitX=0;exitY=0.25;exitDx=0;exitDy=0;entryX=1;entryY=1;entryDx=0;entryDy=0;" edge="1" parent="1" source="90Dla50yhjgB0YiH94BC-17" target="90Dla50yhjgB0YiH94BC-111">
          <mxGeometry relative="1" as="geometry" />
        </mxCell>
        <mxCell id="90Dla50yhjgB0YiH94BC-119" style="edgeStyle=orthogonalEdgeStyle;rounded=0;orthogonalLoop=1;jettySize=auto;html=1;exitX=0;exitY=0.75;exitDx=0;exitDy=0;entryX=1;entryY=0.5;entryDx=0;entryDy=0;" edge="1" parent="1" source="90Dla50yhjgB0YiH94BC-17" target="90Dla50yhjgB0YiH94BC-110">
          <mxGeometry relative="1" as="geometry" />
        </mxCell>
        <mxCell id="90Dla50yhjgB0YiH94BC-17" value="Schedules" style="rounded=1;whiteSpace=wrap;html=1;" vertex="1" parent="1">
          <mxGeometry x="387.5" y="120" width="120" height="60" as="geometry" />
        </mxCell>
        <mxCell id="90Dla50yhjgB0YiH94BC-19" value="" style="endArrow=none;html=1;rounded=0;entryX=0;entryY=0.5;entryDx=0;entryDy=0;exitX=1;exitY=0.5;exitDx=0;exitDy=0;" edge="1" parent="1" source="90Dla50yhjgB0YiH94BC-1" target="90Dla50yhjgB0YiH94BC-13">
          <mxGeometry width="50" height="50" relative="1" as="geometry">
            <mxPoint x="540" y="610" as="sourcePoint" />
            <mxPoint x="590" y="560" as="targetPoint" />
          </mxGeometry>
        </mxCell>
        <mxCell id="90Dla50yhjgB0YiH94BC-20" value="" style="endArrow=none;html=1;rounded=0;entryX=1;entryY=1;entryDx=0;entryDy=0;exitX=0;exitY=0.25;exitDx=0;exitDy=0;" edge="1" parent="1" source="90Dla50yhjgB0YiH94BC-14" target="90Dla50yhjgB0YiH94BC-1">
          <mxGeometry width="50" height="50" relative="1" as="geometry">
            <mxPoint x="540" y="650" as="sourcePoint" />
            <mxPoint x="590" y="600" as="targetPoint" />
          </mxGeometry>
        </mxCell>
        <mxCell id="90Dla50yhjgB0YiH94BC-21" value="" style="endArrow=none;html=1;rounded=0;entryX=0;entryY=0.5;entryDx=0;entryDy=0;exitX=1;exitY=0.5;exitDx=0;exitDy=0;" edge="1" parent="1" source="90Dla50yhjgB0YiH94BC-11" target="90Dla50yhjgB0YiH94BC-1">
          <mxGeometry width="50" height="50" relative="1" as="geometry">
            <mxPoint x="310" y="620" as="sourcePoint" />
            <mxPoint x="360" y="570" as="targetPoint" />
          </mxGeometry>
        </mxCell>
        <mxCell id="90Dla50yhjgB0YiH94BC-22" value="" style="endArrow=none;html=1;rounded=0;exitX=1;exitY=0.5;exitDx=0;exitDy=0;" edge="1" parent="1" source="90Dla50yhjgB0YiH94BC-10" target="90Dla50yhjgB0YiH94BC-1">
          <mxGeometry width="50" height="50" relative="1" as="geometry">
            <mxPoint x="330" y="540" as="sourcePoint" />
            <mxPoint x="380" y="490" as="targetPoint" />
          </mxGeometry>
        </mxCell>
        <mxCell id="90Dla50yhjgB0YiH94BC-23" value="" style="endArrow=none;html=1;rounded=0;exitX=0.75;exitY=1;exitDx=0;exitDy=0;" edge="1" parent="1" source="90Dla50yhjgB0YiH94BC-2" target="90Dla50yhjgB0YiH94BC-1">
          <mxGeometry width="50" height="50" relative="1" as="geometry">
            <mxPoint x="120" y="360" as="sourcePoint" />
            <mxPoint x="420" y="480" as="targetPoint" />
          </mxGeometry>
        </mxCell>
        <mxCell id="90Dla50yhjgB0YiH94BC-24" value="" style="endArrow=none;html=1;rounded=0;entryX=0.571;entryY=1.004;entryDx=0;entryDy=0;entryPerimeter=0;exitX=0.5;exitY=0;exitDx=0;exitDy=0;" edge="1" parent="1" source="90Dla50yhjgB0YiH94BC-1" target="90Dla50yhjgB0YiH94BC-16">
          <mxGeometry width="50" height="50" relative="1" as="geometry">
            <mxPoint x="450" y="510" as="sourcePoint" />
            <mxPoint x="500" y="460" as="targetPoint" />
          </mxGeometry>
        </mxCell>
        <mxCell id="90Dla50yhjgB0YiH94BC-29" value="" style="endArrow=none;html=1;rounded=0;entryX=0;entryY=0.5;entryDx=0;entryDy=0;exitX=1;exitY=0.5;exitDx=0;exitDy=0;" edge="1" parent="1" source="90Dla50yhjgB0YiH94BC-7" target="90Dla50yhjgB0YiH94BC-16">
          <mxGeometry width="50" height="50" relative="1" as="geometry">
            <mxPoint x="300" y="450" as="sourcePoint" />
            <mxPoint x="350" y="400" as="targetPoint" />
          </mxGeometry>
        </mxCell>
        <mxCell id="90Dla50yhjgB0YiH94BC-30" value="" style="endArrow=none;html=1;rounded=0;entryX=0;entryY=0.5;entryDx=0;entryDy=0;exitX=1;exitY=0.5;exitDx=0;exitDy=0;" edge="1" parent="1" source="90Dla50yhjgB0YiH94BC-2" target="90Dla50yhjgB0YiH94BC-7">
          <mxGeometry width="50" height="50" relative="1" as="geometry">
            <mxPoint x="190" y="370" as="sourcePoint" />
            <mxPoint x="240" y="320" as="targetPoint" />
          </mxGeometry>
        </mxCell>
        <mxCell id="90Dla50yhjgB0YiH94BC-31" value="" style="endArrow=none;html=1;rounded=0;entryX=0;entryY=0.5;entryDx=0;entryDy=0;exitX=1;exitY=0.25;exitDx=0;exitDy=0;" edge="1" parent="1" source="90Dla50yhjgB0YiH94BC-16" target="90Dla50yhjgB0YiH94BC-8">
          <mxGeometry width="50" height="50" relative="1" as="geometry">
            <mxPoint x="520" y="470" as="sourcePoint" />
            <mxPoint x="570" y="420" as="targetPoint" />
          </mxGeometry>
        </mxCell>
        <mxCell id="90Dla50yhjgB0YiH94BC-32" value="" style="endArrow=none;html=1;rounded=0;entryX=0;entryY=0.5;entryDx=0;entryDy=0;exitX=0.94;exitY=0.479;exitDx=0;exitDy=0;exitPerimeter=0;" edge="1" parent="1" source="90Dla50yhjgB0YiH94BC-8" target="90Dla50yhjgB0YiH94BC-9">
          <mxGeometry width="50" height="50" relative="1" as="geometry">
            <mxPoint x="660" y="360" as="sourcePoint" />
            <mxPoint x="710" y="310" as="targetPoint" />
          </mxGeometry>
        </mxCell>
        <mxCell id="90Dla50yhjgB0YiH94BC-33" value="Have" style="rhombus;whiteSpace=wrap;html=1;" vertex="1" parent="1">
          <mxGeometry x="408" y="250" width="92" height="40" as="geometry" />
        </mxCell>
        <mxCell id="90Dla50yhjgB0YiH94BC-34" value="" style="endArrow=none;html=1;rounded=0;entryX=0.5;entryY=1;entryDx=0;entryDy=0;exitX=0.553;exitY=-0.013;exitDx=0;exitDy=0;exitPerimeter=0;" edge="1" parent="1" source="90Dla50yhjgB0YiH94BC-16" target="90Dla50yhjgB0YiH94BC-33">
          <mxGeometry width="50" height="50" relative="1" as="geometry">
            <mxPoint x="420" y="380" as="sourcePoint" />
            <mxPoint x="470" y="330" as="targetPoint" />
          </mxGeometry>
        </mxCell>
        <mxCell id="90Dla50yhjgB0YiH94BC-35" value="" style="endArrow=none;html=1;rounded=0;entryX=0;entryY=0.5;entryDx=0;entryDy=0;" edge="1" parent="1" source="90Dla50yhjgB0YiH94BC-2" target="90Dla50yhjgB0YiH94BC-33">
          <mxGeometry width="50" height="50" relative="1" as="geometry">
            <mxPoint x="270" y="320" as="sourcePoint" />
            <mxPoint x="320" y="270" as="targetPoint" />
          </mxGeometry>
        </mxCell>
        <mxCell id="90Dla50yhjgB0YiH94BC-36" value="" style="endArrow=none;html=1;rounded=0;entryX=0.5;entryY=0;entryDx=0;entryDy=0;exitX=1;exitY=0.5;exitDx=0;exitDy=0;" edge="1" parent="1" source="90Dla50yhjgB0YiH94BC-33" target="90Dla50yhjgB0YiH94BC-9">
          <mxGeometry width="50" height="50" relative="1" as="geometry">
            <mxPoint x="630" y="330" as="sourcePoint" />
            <mxPoint x="680" y="280" as="targetPoint" />
          </mxGeometry>
        </mxCell>
        <mxCell id="90Dla50yhjgB0YiH94BC-37" value="" style="endArrow=none;html=1;rounded=0;entryX=0.562;entryY=1;entryDx=0;entryDy=0;entryPerimeter=0;exitX=0.5;exitY=0;exitDx=0;exitDy=0;" edge="1" parent="1" source="90Dla50yhjgB0YiH94BC-81" target="90Dla50yhjgB0YiH94BC-17">
          <mxGeometry width="50" height="50" relative="1" as="geometry">
            <mxPoint x="430" y="250" as="sourcePoint" />
            <mxPoint x="480" y="200" as="targetPoint" />
          </mxGeometry>
        </mxCell>
        <mxCell id="90Dla50yhjgB0YiH94BC-39" value="Uses" style="rhombus;whiteSpace=wrap;html=1;" vertex="1" parent="1">
          <mxGeometry x="600" y="457.5" width="60" height="45" as="geometry" />
        </mxCell>
        <mxCell id="90Dla50yhjgB0YiH94BC-40" value="" style="endArrow=none;html=1;rounded=0;entryX=0;entryY=0.5;entryDx=0;entryDy=0;exitX=1;exitY=1;exitDx=0;exitDy=0;" edge="1" parent="1" source="90Dla50yhjgB0YiH94BC-16" target="90Dla50yhjgB0YiH94BC-39">
          <mxGeometry width="50" height="50" relative="1" as="geometry">
            <mxPoint x="550" y="530" as="sourcePoint" />
            <mxPoint x="600" y="480" as="targetPoint" />
          </mxGeometry>
        </mxCell>
        <mxCell id="90Dla50yhjgB0YiH94BC-41" value="" style="endArrow=none;html=1;rounded=0;entryX=0.5;entryY=1;entryDx=0;entryDy=0;exitX=0.5;exitY=0;exitDx=0;exitDy=0;" edge="1" parent="1" source="90Dla50yhjgB0YiH94BC-13" target="90Dla50yhjgB0YiH94BC-39">
          <mxGeometry width="50" height="50" relative="1" as="geometry">
            <mxPoint x="690" y="570" as="sourcePoint" />
            <mxPoint x="740" y="520" as="targetPoint" />
          </mxGeometry>
        </mxCell>
        <mxCell id="90Dla50yhjgB0YiH94BC-43" value="Held" style="rhombus;whiteSpace=wrap;html=1;" vertex="1" parent="1">
          <mxGeometry x="640" y="597.5" width="70" height="35" as="geometry" />
        </mxCell>
        <mxCell id="90Dla50yhjgB0YiH94BC-44" value="" style="endArrow=none;html=1;rounded=0;entryX=0.5;entryY=1;entryDx=0;entryDy=0;exitX=0.5;exitY=0;exitDx=0;exitDy=0;" edge="1" parent="1" source="90Dla50yhjgB0YiH94BC-43" target="90Dla50yhjgB0YiH94BC-13">
          <mxGeometry width="50" height="50" relative="1" as="geometry">
            <mxPoint x="690" y="650" as="sourcePoint" />
            <mxPoint x="740" y="600" as="targetPoint" />
          </mxGeometry>
        </mxCell>
        <mxCell id="90Dla50yhjgB0YiH94BC-45" value="" style="endArrow=none;html=1;rounded=0;entryX=0.5;entryY=1;entryDx=0;entryDy=0;exitX=0.42;exitY=-0.076;exitDx=0;exitDy=0;exitPerimeter=0;" edge="1" parent="1" source="90Dla50yhjgB0YiH94BC-14" target="90Dla50yhjgB0YiH94BC-43">
          <mxGeometry width="50" height="50" relative="1" as="geometry">
            <mxPoint x="730" y="710" as="sourcePoint" />
            <mxPoint x="780" y="660" as="targetPoint" />
          </mxGeometry>
        </mxCell>
        <mxCell id="90Dla50yhjgB0YiH94BC-49" value="earns" style="rhombus;whiteSpace=wrap;html=1;" vertex="1" parent="1">
          <mxGeometry x="40" y="482.5" width="65" height="45" as="geometry" />
        </mxCell>
        <mxCell id="90Dla50yhjgB0YiH94BC-50" value="" style="endArrow=none;html=1;rounded=0;entryX=1;entryY=0.5;entryDx=0;entryDy=0;" edge="1" parent="1" source="90Dla50yhjgB0YiH94BC-10" target="90Dla50yhjgB0YiH94BC-49">
          <mxGeometry width="50" height="50" relative="1" as="geometry">
            <mxPoint x="110" y="490" as="sourcePoint" />
            <mxPoint x="160" y="440" as="targetPoint" />
          </mxGeometry>
        </mxCell>
        <mxCell id="90Dla50yhjgB0YiH94BC-51" value="" style="endArrow=none;html=1;rounded=0;entryX=0.5;entryY=1;entryDx=0;entryDy=0;exitX=0.344;exitY=0.029;exitDx=0;exitDy=0;exitPerimeter=0;" edge="1" parent="1" source="90Dla50yhjgB0YiH94BC-11" target="90Dla50yhjgB0YiH94BC-49">
          <mxGeometry width="50" height="50" relative="1" as="geometry">
            <mxPoint x="20" y="490" as="sourcePoint" />
            <mxPoint x="70" y="440" as="targetPoint" />
          </mxGeometry>
        </mxCell>
        <mxCell id="90Dla50yhjgB0YiH94BC-52" value="" style="endArrow=none;html=1;rounded=0;entryX=0.59;entryY=0.029;entryDx=0;entryDy=0;entryPerimeter=0;" edge="1" parent="1" source="90Dla50yhjgB0YiH94BC-53" target="90Dla50yhjgB0YiH94BC-10">
          <mxGeometry width="50" height="50" relative="1" as="geometry">
            <mxPoint x="130" y="440" as="sourcePoint" />
            <mxPoint x="90" y="420" as="targetPoint" />
          </mxGeometry>
        </mxCell>
        <mxCell id="90Dla50yhjgB0YiH94BC-53" value="Makes" style="rhombus;whiteSpace=wrap;html=1;" vertex="1" parent="1">
          <mxGeometry x="120" y="345" width="60" height="40" as="geometry" />
        </mxCell>
        <mxCell id="90Dla50yhjgB0YiH94BC-54" value="" style="endArrow=none;html=1;rounded=0;entryX=0.5;entryY=1;entryDx=0;entryDy=0;" edge="1" parent="1" source="90Dla50yhjgB0YiH94BC-53" target="90Dla50yhjgB0YiH94BC-2">
          <mxGeometry width="50" height="50" relative="1" as="geometry">
            <mxPoint x="40" y="440" as="sourcePoint" />
            <mxPoint x="90" y="390" as="targetPoint" />
          </mxGeometry>
        </mxCell>
        <mxCell id="90Dla50yhjgB0YiH94BC-55" value="1" style="text;html=1;strokeColor=none;fillColor=none;align=center;verticalAlign=middle;whiteSpace=wrap;rounded=0;" vertex="1" parent="1">
          <mxGeometry x="320" y="632.5" width="60" height="30" as="geometry" />
        </mxCell>
        <mxCell id="90Dla50yhjgB0YiH94BC-57" value="1" style="text;html=1;strokeColor=none;fillColor=none;align=center;verticalAlign=middle;whiteSpace=wrap;rounded=0;" vertex="1" parent="1">
          <mxGeometry x="610" y="557.5" width="60" height="30" as="geometry" />
        </mxCell>
        <mxCell id="90Dla50yhjgB0YiH94BC-58" value="1" style="text;html=1;strokeColor=none;fillColor=none;align=center;verticalAlign=middle;whiteSpace=wrap;rounded=0;" vertex="1" parent="1">
          <mxGeometry x="620" y="502.5" width="60" height="30" as="geometry" />
        </mxCell>
        <mxCell id="90Dla50yhjgB0YiH94BC-59" value="1" style="text;html=1;strokeColor=none;fillColor=none;align=center;verticalAlign=middle;whiteSpace=wrap;rounded=0;" vertex="1" parent="1">
          <mxGeometry x="695" y="355" width="60" height="30" as="geometry" />
        </mxCell>
        <mxCell id="90Dla50yhjgB0YiH94BC-60" value="1" style="text;html=1;strokeColor=none;fillColor=none;align=center;verticalAlign=middle;whiteSpace=wrap;rounded=0;" vertex="1" parent="1">
          <mxGeometry x="415" y="390" width="60" height="30" as="geometry" />
        </mxCell>
        <mxCell id="90Dla50yhjgB0YiH94BC-61" value="1" style="text;html=1;strokeColor=none;fillColor=none;align=center;verticalAlign=middle;whiteSpace=wrap;rounded=0;" vertex="1" parent="1">
          <mxGeometry x="105" y="240" width="60" height="30" as="geometry" />
        </mxCell>
        <mxCell id="90Dla50yhjgB0YiH94BC-62" value="N" style="text;html=1;align=center;verticalAlign=middle;resizable=0;points=[];autosize=1;strokeColor=none;fillColor=none;" vertex="1" parent="1">
          <mxGeometry x="570" y="540" width="30" height="30" as="geometry" />
        </mxCell>
        <mxCell id="90Dla50yhjgB0YiH94BC-64" value="N" style="text;html=1;align=center;verticalAlign=middle;resizable=0;points=[];autosize=1;strokeColor=none;fillColor=none;" vertex="1" parent="1">
          <mxGeometry x="600" y="657.5" width="30" height="30" as="geometry" />
        </mxCell>
        <mxCell id="90Dla50yhjgB0YiH94BC-65" value="N" style="text;html=1;align=center;verticalAlign=middle;resizable=0;points=[];autosize=1;strokeColor=none;fillColor=none;" vertex="1" parent="1">
          <mxGeometry x="790" y="415" width="30" height="30" as="geometry" />
        </mxCell>
        <mxCell id="90Dla50yhjgB0YiH94BC-66" value="N" style="text;html=1;align=center;verticalAlign=middle;resizable=0;points=[];autosize=1;strokeColor=none;fillColor=none;" vertex="1" parent="1">
          <mxGeometry x="430" y="452.5" width="30" height="30" as="geometry" />
        </mxCell>
        <mxCell id="90Dla50yhjgB0YiH94BC-67" value="N" style="text;html=1;align=center;verticalAlign=middle;resizable=0;points=[];autosize=1;strokeColor=none;fillColor=none;" vertex="1" parent="1">
          <mxGeometry x="140" y="580" width="30" height="30" as="geometry" />
        </mxCell>
        <mxCell id="90Dla50yhjgB0YiH94BC-68" value="N" style="text;html=1;align=center;verticalAlign=middle;resizable=0;points=[];autosize=1;strokeColor=none;fillColor=none;" vertex="1" parent="1">
          <mxGeometry x="190" y="452.5" width="30" height="30" as="geometry" />
        </mxCell>
        <mxCell id="90Dla50yhjgB0YiH94BC-69" value="N" style="text;html=1;align=center;verticalAlign=middle;resizable=0;points=[];autosize=1;strokeColor=none;fillColor=none;" vertex="1" parent="1">
          <mxGeometry x="90" y="290" width="30" height="30" as="geometry" />
        </mxCell>
        <mxCell id="90Dla50yhjgB0YiH94BC-72" value="" style="endArrow=none;html=1;rounded=0;" edge="1" parent="1">
          <mxGeometry width="50" height="50" relative="1" as="geometry">
            <mxPoint x="820" y="410" as="sourcePoint" />
            <mxPoint x="461" y="550" as="targetPoint" />
            <Array as="points">
              <mxPoint x="820" y="770" />
              <mxPoint x="460" y="770" />
            </Array>
          </mxGeometry>
        </mxCell>
        <mxCell id="90Dla50yhjgB0YiH94BC-73" value="1" style="text;html=1;strokeColor=none;fillColor=none;align=center;verticalAlign=middle;whiteSpace=wrap;rounded=0;" vertex="1" parent="1">
          <mxGeometry x="695" y="395" width="60" height="30" as="geometry" />
        </mxCell>
        <mxCell id="90Dla50yhjgB0YiH94BC-74" value="M" style="text;html=1;align=center;verticalAlign=middle;resizable=0;points=[];autosize=1;strokeColor=none;fillColor=none;" vertex="1" parent="1">
          <mxGeometry x="362.5" y="430" width="30" height="30" as="geometry" />
        </mxCell>
        <mxCell id="90Dla50yhjgB0YiH94BC-75" value="N" style="text;html=1;align=center;verticalAlign=middle;resizable=0;points=[];autosize=1;strokeColor=none;fillColor=none;" vertex="1" parent="1">
          <mxGeometry x="110" y="270" width="30" height="30" as="geometry" />
        </mxCell>
        <mxCell id="90Dla50yhjgB0YiH94BC-76" value="N" style="text;html=1;align=center;verticalAlign=middle;resizable=0;points=[];autosize=1;strokeColor=none;fillColor=none;" vertex="1" parent="1">
          <mxGeometry x="500" y="452.5" width="30" height="30" as="geometry" />
        </mxCell>
        <mxCell id="90Dla50yhjgB0YiH94BC-77" value="N" style="text;html=1;align=center;verticalAlign=middle;resizable=0;points=[];autosize=1;strokeColor=none;fillColor=none;" vertex="1" parent="1">
          <mxGeometry x="150" y="400" width="30" height="30" as="geometry" />
        </mxCell>
        <mxCell id="90Dla50yhjgB0YiH94BC-78" value="1" style="text;html=1;strokeColor=none;fillColor=none;align=center;verticalAlign=middle;whiteSpace=wrap;rounded=0;" vertex="1" parent="1">
          <mxGeometry x="50" y="290" width="60" height="30" as="geometry" />
        </mxCell>
        <mxCell id="90Dla50yhjgB0YiH94BC-79" value="1" style="text;html=1;strokeColor=none;fillColor=none;align=center;verticalAlign=middle;whiteSpace=wrap;rounded=0;" vertex="1" parent="1">
          <mxGeometry x="110" y="465" width="60" height="30" as="geometry" />
        </mxCell>
        <mxCell id="90Dla50yhjgB0YiH94BC-80" value="N" style="text;html=1;align=center;verticalAlign=middle;resizable=0;points=[];autosize=1;strokeColor=none;fillColor=none;" vertex="1" parent="1">
          <mxGeometry x="70" y="540" width="30" height="30" as="geometry" />
        </mxCell>
        <mxCell id="90Dla50yhjgB0YiH94BC-81" value="N" style="text;html=1;align=center;verticalAlign=middle;resizable=0;points=[];autosize=1;strokeColor=none;fillColor=none;" vertex="1" parent="1">
          <mxGeometry x="425" y="180" width="30" height="30" as="geometry" />
        </mxCell>
        <mxCell id="90Dla50yhjgB0YiH94BC-83" value="" style="endArrow=classic;html=1;rounded=0;entryX=0.569;entryY=0.986;entryDx=0;entryDy=0;entryPerimeter=0;exitX=0.5;exitY=0;exitDx=0;exitDy=0;" edge="1" parent="1" source="90Dla50yhjgB0YiH94BC-33" target="90Dla50yhjgB0YiH94BC-17">
          <mxGeometry width="50" height="50" relative="1" as="geometry">
            <mxPoint x="460" y="250" as="sourcePoint" />
            <mxPoint x="510" y="200" as="targetPoint" />
          </mxGeometry>
        </mxCell>
        <mxCell id="90Dla50yhjgB0YiH94BC-84" value="" style="endArrow=classic;html=1;rounded=0;exitX=0.93;exitY=1.003;exitDx=0;exitDy=0;exitPerimeter=0;" edge="1" parent="1" source="90Dla50yhjgB0YiH94BC-55" target="90Dla50yhjgB0YiH94BC-1">
          <mxGeometry width="50" height="50" relative="1" as="geometry">
            <mxPoint x="360" y="600" as="sourcePoint" />
            <mxPoint x="410" y="550" as="targetPoint" />
            <Array as="points" />
          </mxGeometry>
        </mxCell>
        <mxCell id="90Dla50yhjgB0YiH94BC-85" value="&lt;u&gt;LoyaltyID&lt;/u&gt;" style="ellipse;whiteSpace=wrap;html=1;" vertex="1" parent="1">
          <mxGeometry y="627.5" width="65" height="20" as="geometry" />
        </mxCell>
        <mxCell id="90Dla50yhjgB0YiH94BC-86" value="PointsEarned" style="ellipse;whiteSpace=wrap;html=1;" vertex="1" parent="1">
          <mxGeometry x="15" y="675" width="95" height="35" as="geometry" />
        </mxCell>
        <mxCell id="90Dla50yhjgB0YiH94BC-87" value="RemainingPoints" style="ellipse;whiteSpace=wrap;html=1;" vertex="1" parent="1">
          <mxGeometry x="90" y="632.5" width="100" height="30" as="geometry" />
        </mxCell>
        <mxCell id="90Dla50yhjgB0YiH94BC-88" value="" style="endArrow=classic;html=1;rounded=0;exitX=0.572;exitY=1.063;exitDx=0;exitDy=0;exitPerimeter=0;" edge="1" parent="1" source="90Dla50yhjgB0YiH94BC-11">
          <mxGeometry width="50" height="50" relative="1" as="geometry">
            <mxPoint x="220" y="660" as="sourcePoint" />
            <mxPoint x="130" y="630" as="targetPoint" />
          </mxGeometry>
        </mxCell>
        <mxCell id="90Dla50yhjgB0YiH94BC-89" value="" style="endArrow=classic;html=1;rounded=0;entryX=0.553;entryY=0.02;entryDx=0;entryDy=0;entryPerimeter=0;exitX=0.4;exitY=1.017;exitDx=0;exitDy=0;exitPerimeter=0;" edge="1" parent="1" source="90Dla50yhjgB0YiH94BC-11" target="90Dla50yhjgB0YiH94BC-86">
          <mxGeometry width="50" height="50" relative="1" as="geometry">
            <mxPoint x="30" y="670" as="sourcePoint" />
            <mxPoint x="80" y="620" as="targetPoint" />
          </mxGeometry>
        </mxCell>
        <mxCell id="90Dla50yhjgB0YiH94BC-92" value="Amount" style="ellipse;whiteSpace=wrap;html=1;" vertex="1" parent="1">
          <mxGeometry x="3" y="335" width="57" height="25" as="geometry" />
        </mxCell>
        <mxCell id="90Dla50yhjgB0YiH94BC-94" value="Date" style="ellipse;whiteSpace=wrap;html=1;" vertex="1" parent="1">
          <mxGeometry x="3" y="370" width="55" height="20" as="geometry" />
        </mxCell>
        <mxCell id="90Dla50yhjgB0YiH94BC-95" value="Type" style="ellipse;whiteSpace=wrap;html=1;" vertex="1" parent="1">
          <mxGeometry x="3" y="400" width="60" height="15" as="geometry" />
        </mxCell>
        <mxCell id="90Dla50yhjgB0YiH94BC-96" value="&lt;u&gt;TransactionID&lt;/u&gt;" style="ellipse;whiteSpace=wrap;html=1;" vertex="1" parent="1">
          <mxGeometry x="-10" y="430" width="90" height="40" as="geometry" />
        </mxCell>
        <mxCell id="90Dla50yhjgB0YiH94BC-102" value="&lt;u&gt;EventID&lt;/u&gt;" style="ellipse;whiteSpace=wrap;html=1;" vertex="1" parent="1">
          <mxGeometry x="380" y="315" width="60" height="20" as="geometry" />
        </mxCell>
        <mxCell id="90Dla50yhjgB0YiH94BC-103" value="Name" style="ellipse;whiteSpace=wrap;html=1;" vertex="1" parent="1">
          <mxGeometry x="348" y="345" width="60" height="20" as="geometry" />
        </mxCell>
        <mxCell id="90Dla50yhjgB0YiH94BC-104" value="Type" style="ellipse;whiteSpace=wrap;html=1;" vertex="1" parent="1">
          <mxGeometry x="460" y="320" width="80" height="20" as="geometry" />
        </mxCell>
        <mxCell id="90Dla50yhjgB0YiH94BC-105" value="Description" style="ellipse;whiteSpace=wrap;html=1;" vertex="1" parent="1">
          <mxGeometry x="510" y="355" width="80" height="20" as="geometry" />
        </mxCell>
        <mxCell id="90Dla50yhjgB0YiH94BC-107" style="edgeStyle=orthogonalEdgeStyle;rounded=0;orthogonalLoop=1;jettySize=auto;html=1;exitX=0.392;exitY=-0.039;exitDx=0;exitDy=0;entryX=0.66;entryY=1;entryDx=0;entryDy=0;entryPerimeter=0;exitPerimeter=0;" edge="1" parent="1" source="90Dla50yhjgB0YiH94BC-16" target="90Dla50yhjgB0YiH94BC-102">
          <mxGeometry relative="1" as="geometry">
            <Array as="points">
              <mxPoint x="430" y="418" />
              <mxPoint x="430" y="367" />
              <mxPoint x="420" y="367" />
            </Array>
          </mxGeometry>
        </mxCell>
        <mxCell id="90Dla50yhjgB0YiH94BC-108" style="edgeStyle=orthogonalEdgeStyle;rounded=0;orthogonalLoop=1;jettySize=auto;html=1;exitX=1;exitY=1;exitDx=0;exitDy=0;entryX=0.426;entryY=1.198;entryDx=0;entryDy=0;entryPerimeter=0;" edge="1" parent="1" source="90Dla50yhjgB0YiH94BC-60" target="90Dla50yhjgB0YiH94BC-104">
          <mxGeometry relative="1" as="geometry">
            <Array as="points">
              <mxPoint x="475" y="410" />
              <mxPoint x="480" y="410" />
              <mxPoint x="480" y="365" />
              <mxPoint x="494" y="365" />
            </Array>
          </mxGeometry>
        </mxCell>
        <mxCell id="90Dla50yhjgB0YiH94BC-110" value="Date" style="ellipse;whiteSpace=wrap;html=1;" vertex="1" parent="1">
          <mxGeometry x="281" y="155" width="67" height="25" as="geometry" />
        </mxCell>
        <mxCell id="90Dla50yhjgB0YiH94BC-111" value="Time" style="ellipse;whiteSpace=wrap;html=1;" vertex="1" parent="1">
          <mxGeometry x="293" y="110" width="67" height="20" as="geometry" />
        </mxCell>
        <mxCell id="90Dla50yhjgB0YiH94BC-112" value="Location" style="ellipse;whiteSpace=wrap;html=1;" vertex="1" parent="1">
          <mxGeometry x="328" y="67.5" width="80" height="20" as="geometry" />
        </mxCell>
        <mxCell id="90Dla50yhjgB0YiH94BC-113" value="Type" style="ellipse;whiteSpace=wrap;html=1;" vertex="1" parent="1">
          <mxGeometry x="440" y="62.5" width="70" height="25" as="geometry" />
        </mxCell>
        <mxCell id="90Dla50yhjgB0YiH94BC-114" value="&lt;u&gt;SheduleID&lt;/u&gt;" style="ellipse;whiteSpace=wrap;html=1;" vertex="1" parent="1">
          <mxGeometry x="550" y="87.5" width="65" height="30" as="geometry" />
        </mxCell>
        <mxCell id="90Dla50yhjgB0YiH94BC-120" value="&lt;u&gt;MemberID&lt;/u&gt;" style="ellipse;whiteSpace=wrap;html=1;" vertex="1" parent="1">
          <mxGeometry x="5" y="50" width="65" height="20" as="geometry" />
        </mxCell>
        <mxCell id="90Dla50yhjgB0YiH94BC-121" value="HealthMetrics" style="ellipse;whiteSpace=wrap;html=1;" vertex="1" parent="1">
          <mxGeometry x="50" y="87.5" width="90" height="22" as="geometry" />
        </mxCell>
        <mxCell id="90Dla50yhjgB0YiH94BC-122" value="Name" style="ellipse;whiteSpace=wrap;html=1;" vertex="1" parent="1">
          <mxGeometry x="60" y="130" width="80" height="20" as="geometry" />
        </mxCell>
        <mxCell id="90Dla50yhjgB0YiH94BC-123" value="Email" style="ellipse;whiteSpace=wrap;html=1;" vertex="1" parent="1">
          <mxGeometry x="50" y="200" width="75" height="20" as="geometry" />
        </mxCell>
        <mxCell id="90Dla50yhjgB0YiH94BC-124" value="Phone" style="ellipse;whiteSpace=wrap;html=1;" vertex="1" parent="1">
          <mxGeometry x="138" y="210" width="85" height="20" as="geometry" />
        </mxCell>
        <mxCell id="90Dla50yhjgB0YiH94BC-125" value="" style="endArrow=classic;html=1;rounded=0;entryX=0.299;entryY=1.009;entryDx=0;entryDy=0;entryPerimeter=0;exitX=0;exitY=0.5;exitDx=0;exitDy=0;" edge="1" parent="1" source="90Dla50yhjgB0YiH94BC-2" target="90Dla50yhjgB0YiH94BC-120">
          <mxGeometry width="50" height="50" relative="1" as="geometry">
            <mxPoint x="-10" y="250" as="sourcePoint" />
            <mxPoint x="40" y="200" as="targetPoint" />
            <Array as="points">
              <mxPoint x="24" y="265" />
            </Array>
          </mxGeometry>
        </mxCell>
        <mxCell id="90Dla50yhjgB0YiH94BC-126" value="" style="endArrow=classic;html=1;rounded=0;entryX=0;entryY=0.5;entryDx=0;entryDy=0;" edge="1" parent="1" target="90Dla50yhjgB0YiH94BC-121">
          <mxGeometry width="50" height="50" relative="1" as="geometry">
            <mxPoint x="20" y="99" as="sourcePoint" />
            <mxPoint x="60" y="140" as="targetPoint" />
          </mxGeometry>
        </mxCell>
        <mxCell id="90Dla50yhjgB0YiH94BC-127" value="" style="endArrow=classic;html=1;rounded=0;" edge="1" parent="1" target="90Dla50yhjgB0YiH94BC-122">
          <mxGeometry width="50" height="50" relative="1" as="geometry">
            <mxPoint x="20" y="140" as="sourcePoint" />
            <mxPoint x="30" y="150" as="targetPoint" />
          </mxGeometry>
        </mxCell>
        <mxCell id="90Dla50yhjgB0YiH94BC-128" value="" style="endArrow=classic;html=1;rounded=0;entryX=0.423;entryY=1.026;entryDx=0;entryDy=0;entryPerimeter=0;exitX=0.5;exitY=0;exitDx=0;exitDy=0;" edge="1" parent="1" source="90Dla50yhjgB0YiH94BC-2" target="90Dla50yhjgB0YiH94BC-123">
          <mxGeometry width="50" height="50" relative="1" as="geometry">
            <mxPoint x="-40" y="290" as="sourcePoint" />
            <mxPoint x="10" y="240" as="targetPoint" />
          </mxGeometry>
        </mxCell>
        <mxCell id="90Dla50yhjgB0YiH94BC-129" value="" style="endArrow=classic;html=1;rounded=0;entryX=0;entryY=0.5;entryDx=0;entryDy=0;exitX=0.75;exitY=0;exitDx=0;exitDy=0;" edge="1" parent="1" source="90Dla50yhjgB0YiH94BC-2" target="90Dla50yhjgB0YiH94BC-124">
          <mxGeometry width="50" height="50" relative="1" as="geometry">
            <mxPoint x="-50" y="300" as="sourcePoint" />
            <mxPoint y="250" as="targetPoint" />
          </mxGeometry>
        </mxCell>
        <mxCell id="90Dla50yhjgB0YiH94BC-130" value="FitnessGoals" style="ellipse;whiteSpace=wrap;html=1;" vertex="1" parent="1">
          <mxGeometry x="115" y="160" width="85" height="30" as="geometry" />
        </mxCell>
        <mxCell id="90Dla50yhjgB0YiH94BC-131" value="" style="endArrow=classic;html=1;rounded=0;entryX=0;entryY=0.5;entryDx=0;entryDy=0;" edge="1" parent="1" target="90Dla50yhjgB0YiH94BC-130">
          <mxGeometry width="50" height="50" relative="1" as="geometry">
            <mxPoint x="20" y="175" as="sourcePoint" />
            <mxPoint x="60" y="170" as="targetPoint" />
          </mxGeometry>
        </mxCell>
        <mxCell id="90Dla50yhjgB0YiH94BC-132" value="&lt;u&gt;TrainerID&lt;/u&gt;" style="ellipse;whiteSpace=wrap;html=1;" vertex="1" parent="1">
          <mxGeometry x="670" y="280" width="70" height="20" as="geometry" />
        </mxCell>
        <mxCell id="90Dla50yhjgB0YiH94BC-133" value="Name" style="ellipse;whiteSpace=wrap;html=1;" vertex="1" parent="1">
          <mxGeometry x="725" y="225" width="55" height="15" as="geometry" />
        </mxCell>
        <mxCell id="90Dla50yhjgB0YiH94BC-134" value="Email" style="ellipse;whiteSpace=wrap;html=1;" vertex="1" parent="1">
          <mxGeometry x="790" y="325" width="60" height="15" as="geometry" />
        </mxCell>
        <mxCell id="90Dla50yhjgB0YiH94BC-136" value="Phone" style="ellipse;whiteSpace=wrap;html=1;" vertex="1" parent="1">
          <mxGeometry x="790" y="260" width="40" height="20" as="geometry" />
        </mxCell>
        <mxCell id="90Dla50yhjgB0YiH94BC-138" value="" style="endArrow=classic;html=1;rounded=0;exitX=0.5;exitY=0;exitDx=0;exitDy=0;entryX=0.581;entryY=1.129;entryDx=0;entryDy=0;entryPerimeter=0;" edge="1" parent="1" source="90Dla50yhjgB0YiH94BC-9" target="90Dla50yhjgB0YiH94BC-132">
          <mxGeometry width="50" height="50" relative="1" as="geometry">
            <mxPoint x="630" y="270" as="sourcePoint" />
            <mxPoint x="680" y="220" as="targetPoint" />
            <Array as="points">
              <mxPoint x="740" y="350" />
            </Array>
          </mxGeometry>
        </mxCell>
        <mxCell id="90Dla50yhjgB0YiH94BC-143" value="&lt;u&gt;RoomID&lt;/u&gt;" style="ellipse;whiteSpace=wrap;html=1;" vertex="1" parent="1">
          <mxGeometry x="685" y="470.5" width="70" height="32" as="geometry" />
        </mxCell>
        <mxCell id="90Dla50yhjgB0YiH94BC-144" value="Name" style="ellipse;whiteSpace=wrap;html=1;" vertex="1" parent="1">
          <mxGeometry x="730" y="525" width="55" height="20" as="geometry" />
        </mxCell>
        <mxCell id="90Dla50yhjgB0YiH94BC-145" value="Capacity" style="ellipse;whiteSpace=wrap;html=1;" vertex="1" parent="1">
          <mxGeometry x="710" y="561.5" width="70" height="22" as="geometry" />
        </mxCell>
        <mxCell id="90Dla50yhjgB0YiH94BC-146" value="Size" style="ellipse;whiteSpace=wrap;html=1;" vertex="1" parent="1">
          <mxGeometry x="555" y="385" width="65" height="17" as="geometry" />
        </mxCell>
        <mxCell id="90Dla50yhjgB0YiH94BC-147" value="" style="endArrow=none;html=1;rounded=0;entryX=0;entryY=0.5;entryDx=0;entryDy=0;exitX=1;exitY=0.5;exitDx=0;exitDy=0;" edge="1" parent="1" source="90Dla50yhjgB0YiH94BC-16" target="90Dla50yhjgB0YiH94BC-70">
          <mxGeometry width="50" height="50" relative="1" as="geometry">
            <mxPoint x="505" y="440" as="sourcePoint" />
            <mxPoint x="630" y="415" as="targetPoint" />
          </mxGeometry>
        </mxCell>
        <mxCell id="90Dla50yhjgB0YiH94BC-70" value="N" style="text;html=1;align=center;verticalAlign=middle;resizable=0;points=[];autosize=1;strokeColor=none;fillColor=none;" vertex="1" parent="1">
          <mxGeometry x="507.5" y="425" width="30" height="30" as="geometry" />
        </mxCell>
        <mxCell id="90Dla50yhjgB0YiH94BC-148" style="edgeStyle=orthogonalEdgeStyle;rounded=0;orthogonalLoop=1;jettySize=auto;html=1;exitX=1;exitY=0;exitDx=0;exitDy=0;entryX=0.326;entryY=1.034;entryDx=0;entryDy=0;entryPerimeter=0;" edge="1" parent="1" source="90Dla50yhjgB0YiH94BC-16" target="90Dla50yhjgB0YiH94BC-146">
          <mxGeometry relative="1" as="geometry">
            <Array as="points">
              <mxPoint x="505" y="410" />
              <mxPoint x="576" y="410" />
            </Array>
          </mxGeometry>
        </mxCell>
        <mxCell id="90Dla50yhjgB0YiH94BC-149" value="" style="endArrow=classic;html=1;rounded=0;entryX=0;entryY=1;entryDx=0;entryDy=0;exitX=1;exitY=0;exitDx=0;exitDy=0;" edge="1" parent="1" source="90Dla50yhjgB0YiH94BC-13" target="90Dla50yhjgB0YiH94BC-143">
          <mxGeometry width="50" height="50" relative="1" as="geometry">
            <mxPoint x="680" y="520" as="sourcePoint" />
            <mxPoint x="730" y="470" as="targetPoint" />
          </mxGeometry>
        </mxCell>
        <mxCell id="90Dla50yhjgB0YiH94BC-152" value="N" style="text;html=1;align=center;verticalAlign=middle;resizable=0;points=[];autosize=1;strokeColor=none;fillColor=none;" vertex="1" parent="1">
          <mxGeometry x="670" y="640" width="30" height="30" as="geometry" />
        </mxCell>
        <mxCell id="90Dla50yhjgB0YiH94BC-153" value="&lt;u&gt;EquipmentID&lt;/u&gt;" style="ellipse;whiteSpace=wrap;html=1;" vertex="1" parent="1">
          <mxGeometry x="580" y="700" width="80" height="40" as="geometry" />
        </mxCell>
        <mxCell id="90Dla50yhjgB0YiH94BC-154" value="Name" style="ellipse;whiteSpace=wrap;html=1;" vertex="1" parent="1">
          <mxGeometry x="700" y="710" width="60" height="20" as="geometry" />
        </mxCell>
        <mxCell id="90Dla50yhjgB0YiH94BC-156" style="edgeStyle=orthogonalEdgeStyle;rounded=0;orthogonalLoop=1;jettySize=auto;html=1;exitX=0.75;exitY=1;exitDx=0;exitDy=0;entryX=0.304;entryY=0.043;entryDx=0;entryDy=0;entryPerimeter=0;" edge="1" parent="1" source="90Dla50yhjgB0YiH94BC-14" target="90Dla50yhjgB0YiH94BC-154">
          <mxGeometry relative="1" as="geometry" />
        </mxCell>
        <mxCell id="90Dla50yhjgB0YiH94BC-157" value="&lt;u&gt;AdminID&lt;/u&gt;" style="ellipse;whiteSpace=wrap;html=1;" vertex="1" parent="1">
          <mxGeometry x="220" y="710" width="70" height="20" as="geometry" />
        </mxCell>
        <mxCell id="90Dla50yhjgB0YiH94BC-158" value="User" style="ellipse;whiteSpace=wrap;html=1;" vertex="1" parent="1">
          <mxGeometry x="255" y="750" width="55" height="20" as="geometry" />
        </mxCell>
        <mxCell id="90Dla50yhjgB0YiH94BC-159" value="Password" style="ellipse;whiteSpace=wrap;html=1;" vertex="1" parent="1">
          <mxGeometry x="337" y="750" width="62" height="20" as="geometry" />
        </mxCell>
        <mxCell id="90Dla50yhjgB0YiH94BC-160" style="edgeStyle=orthogonalEdgeStyle;rounded=0;orthogonalLoop=1;jettySize=auto;html=1;exitX=0.75;exitY=1;exitDx=0;exitDy=0;entryX=0.576;entryY=0.147;entryDx=0;entryDy=0;entryPerimeter=0;" edge="1" parent="1" source="90Dla50yhjgB0YiH94BC-12" target="90Dla50yhjgB0YiH94BC-159">
          <mxGeometry relative="1" as="geometry" />
        </mxCell>
        <mxCell id="90Dla50yhjgB0YiH94BC-162" style="edgeStyle=orthogonalEdgeStyle;rounded=0;orthogonalLoop=1;jettySize=auto;html=1;exitX=0.25;exitY=1;exitDx=0;exitDy=0;entryX=0.94;entryY=0.284;entryDx=0;entryDy=0;entryPerimeter=0;" edge="1" parent="1" source="90Dla50yhjgB0YiH94BC-12" target="90Dla50yhjgB0YiH94BC-157">
          <mxGeometry relative="1" as="geometry" />
        </mxCell>
      </root>
    </mxGraphModel>
  </diagram>
</mxfile>
